<?xml version="1.0" encoding="UTF-8"?>
<svg xmlns="http://www.w3.org/2000/svg" width="150" height="150" viewBox="0 0 150 150" fill="none">
  <g clip-path="url(#clip0_435_1408)">
    <path d="M4.01993 149.53C2.90993 149.53 1.89993 149.06 1.17993 148.3C0.459929 147.54 0.00992891 146.5 0.00992891 145.36V4.67C-7.10865e-05 3.52 0.449929 2.48 1.16993 1.73C1.88993 0.97 2.89993 0.5 4.00993 0.5H145C146.11 0.5 147.12 0.97 147.84 1.72C148.56 2.48 149.01 3.52 149.01 4.67V145.52C148.97 146.61 148.53 147.59 147.84 148.31C147.12 149.07 146.11 149.54 145 149.54H4.01993V149.53ZM2.88993 1C3.22993 0.89 3.59993 0.82 3.97993 0.82C3.59993 0.82 3.23993 0.89 2.88993 1ZM145.01 0.82H145.02C145.02 0.82 145.11 0.82 145.16 0.68C145.14 0.51 145.09 0.55 145.09 0.53L145.06 0.58L145.01 0.81V0.82Z" fill="#2A5D98"></path>
    <path d="M148.4 4.66988V145.36C148.4 146.34 148.02 147.23 147.4 147.87C146.79 148.51 145.94 148.9 145.01 148.9H4.01988C3.08988 148.9 2.23988 148.51 1.62988 147.87C1.00988 147.23 0.629883 146.34 0.629883 145.36V4.66988C0.629883 3.68988 1.00988 2.79988 1.62988 2.15988C2.23988 1.51988 3.08988 1.12988 4.01988 1.12988H145.01C145.94 1.12988 146.79 1.51988 147.4 2.15988C148.01 2.79988 148.4 3.68988 148.4 4.66988Z" fill="white"></path>
    <path d="M86.23 25.5602C85.85 25.3502 85.45 25.1602 85.04 25.0102C80.16 23.1402 74.68 25.5702 72.8 30.4602C70.93 35.3402 73.37 40.8202 78.25 42.7002C78.66 42.8602 79.08 42.9802 79.5 43.0802C80.18 43.2402 80.75 42.8202 80.91 42.1402C81.07 41.4602 80.76 40.7402 80.08 40.5902C79.77 40.5202 79.47 40.4302 79.17 40.3102C76.01 39.1002 74.25 35.8102 74.85 32.6002L79.93 34.5502C80.58 34.8002 81.21 34.4702 81.46 33.8202C81.71 33.1702 81.49 32.4402 80.84 32.1902L75.76 30.2402C77.47 27.4602 80.96 26.2002 84.12 27.4102C84.42 27.5302 84.74 27.6502 85.01 27.8002C85.62 28.1402 86.29 27.8902 86.62 27.2702C86.95 26.6502 86.84 25.9102 86.22 25.5702" fill="#52A733"></path>
    <path d="M78.04 10.4398H84.74L79.32 14.3898L81.39 8.00977L83.47 14.3898L78.04 10.4398Z" fill="#2A5D98"></path>
    <path d="M89.6396 13.4H96.3496L90.9196 17.34L92.9996 10.96L95.0696 17.34L89.6396 13.4Z" fill="#2A5D98"></path>
    <path d="M97.7598 22.1502H104.47L99.0498 26.0902L101.12 19.7202L103.19 26.0902L97.7598 22.1502Z" fill="#2A5D98"></path>
    <path d="M73.1297 13.4H66.4297L71.8597 17.34L69.7797 10.96L67.7097 17.34L73.1297 13.4Z" fill="#2A5D98"></path>
    <path d="M65.0196 22.1502H58.3096L63.7296 26.0902L61.6696 19.7202L59.5896 26.0902L65.0196 22.1502Z" fill="#2A5D98"></path>
    <path d="M100.61 33.1199H107.32L101.89 37.0599L103.96 30.6899L106.04 37.0599L100.61 33.1199Z" fill="#2A5D98"></path>
    <path d="M97.4395 44.5298H104.149L98.7295 48.4698L100.799 42.0898L102.869 48.4698L97.4395 44.5298Z" fill="#2A5D98"></path>
    <path d="M65.3399 44.5298H58.6299L64.0499 48.4698L61.9799 42.0898L59.9099 48.4698L65.3399 44.5298Z" fill="#2A5D98"></path>
    <path d="M73.7303 52.7098H67.0303L72.4503 56.6498L70.3803 50.2798L68.3003 56.6498L73.7303 52.7098Z" fill="#2A5D98"></path>
    <path d="M62.17 33.1199H55.46L60.89 37.0599L58.82 30.6899L56.74 37.0599L62.17 33.1199Z" fill="#2A5D98"></path>
    <path d="M78.04 56.0399H84.74L79.32 59.9799L81.39 53.6099L83.47 59.9799L78.04 56.0399Z" fill="#2A5D98"></path>
    <path d="M74.3603 65.4202C74.0403 73.0402 71.2803 71.2202 71.6703 84.5102C70.4703 76.3502 71.7603 75.2402 73.6203 68.0302C71.5103 74.4902 70.4403 74.0102 71.2703 84.7502C70.7403 85.3302 71.4003 87.6202 69.3503 86.5702C67.6603 83.7602 67.7203 79.1602 72.2003 62.7302C72.3603 62.0402 74.5503 60.8902 74.3603 65.4202Z" fill="#52A733"></path>
    <path d="M54.3701 74.2202C55.6501 74.2202 59.7701 73.6802 62.2801 75.4302C63.8601 76.5402 65.2401 77.5102 65.6601 78.1702C66.0301 78.7502 66.2401 79.4402 66.5001 79.9602C66.7601 80.4902 64.6601 80.4902 63.5501 80.4902C61.9101 80.4902 57.0901 74.2202 54.3701 74.2202Z" fill="#52A733"></path>
    <mask id="mask0_435_1408" style="mask-type:luminance" maskUnits="userSpaceOnUse" x="41" y="50" width="27" height="25">
      <path d="M67.4898 50.29H41.5498V74.46H67.4898V50.29Z" fill="white"></path>
    </mask>
    <g mask="url(#mask0_435_1408)">
      <path d="M67.1798 72.7501C67.7098 73.7001 67.5998 74.8601 66.4998 74.3301C65.1098 73.6701 62.9698 72.7501 61.9598 72.1201C56.5598 68.7101 49.0898 52.2901 41.5498 50.3401C42.9198 50.2901 43.9198 50.2401 45.0298 50.4401C46.3698 50.7001 66.1798 61.1501 67.1798 72.7501Z" fill="#52A733"></path>
    </g>
    <path d="M77.3094 74.8098C73.1994 69.2198 85.2694 61.4198 98.3494 66.5798C96.8694 66.6798 94.1794 66.5298 92.8094 67.2098C93.2294 67.8398 96.1294 68.0498 98.7694 68.2598C97.9294 67.7898 97.6094 67.5198 96.8694 67.4198C101.089 66.9498 103.569 69.5298 106.309 70.2698C104.889 70.3698 103.939 70.3698 103.569 70.3698C103.619 70.5798 103.729 70.5298 103.989 70.8398C102.569 70.2598 97.4994 70.6298 95.7094 71.0998C93.9194 71.5698 92.8094 71.1498 91.6494 71.1998C91.8594 71.4598 92.1194 71.5198 92.2794 71.7798C90.3294 71.3098 85.9494 71.6798 82.9494 73.1498C83.2094 72.8298 83.4794 72.5698 83.7894 72.4098C81.0494 73.0398 78.0894 75.2598 77.2994 74.7798" fill="#52A733"></path>
    <path d="M75.3096 80.2399C75.3096 78.4999 78.8896 77.8699 80.2696 77.5499C81.6396 77.2299 84.5396 76.3799 86.9696 76.3399C90.2396 76.2899 95.6196 77.1799 98.0396 79.1899C96.8796 78.7699 94.1396 77.9199 92.7096 78.0799C93.0796 78.3399 93.1296 78.4499 93.1796 78.6099C93.1796 78.6099 92.1796 78.6099 91.6996 79.0299C92.0696 78.9299 94.1296 79.1299 95.0196 79.1899C94.0196 79.3999 90.7996 79.9299 90.1196 80.1399C90.5396 80.2999 90.7496 80.3999 91.0196 80.5599C88.6996 80.7699 83.3196 83.3499 81.1096 83.4099C78.8996 83.4699 75.3096 83.3099 75.3096 80.2499" fill="#52A733"></path>
    <path d="M29.3504 131.67L27.3604 138.08H25.1804L23.8704 133.76L22.5804 138.08H20.3704L18.4004 131.67H20.5604L21.6604 136.09L23.0304 131.67H24.8504L26.1504 136.09L27.2404 131.67H29.3504Z" fill="#52A733"></path>
    <path d="M40.8201 131.67L38.8301 138.08H36.6401L35.3401 133.76L34.0401 138.08H31.8401L29.8701 131.67H32.0201L33.1201 136.09L34.4901 131.67H36.3201L37.6201 136.09L38.7101 131.67H40.8201Z" fill="#52A733"></path>
    <path d="M52.2801 131.67L50.3001 138.08H48.1101L46.8001 133.76L45.5101 138.08H43.3001L41.3301 131.67H43.4901L44.5901 136.09L45.9601 131.67H47.7901L49.0901 136.09L50.1701 131.67H52.2801Z" fill="#52A733"></path>
    <path d="M55.7298 135.84H53.5898V138.09H55.7298V135.84Z" fill="#52A733"></path>
    <path d="M64.07 135.26H59.36C59.39 135.76 59.58 136.15 59.94 136.41C60.29 136.68 60.81 136.81 61.5 136.81C61.93 136.81 62.35 136.73 62.76 136.58C63.17 136.42 63.49 136.26 63.73 136.08H63.96V137.73C63.49 137.92 63.06 138.05 62.65 138.14C62.24 138.22 61.78 138.27 61.28 138.27C59.99 138.27 59.01 137.98 58.32 137.4C57.63 136.82 57.29 136 57.29 134.93C57.29 133.86 57.62 133.03 58.26 132.41C58.9 131.79 59.8 131.48 60.93 131.48C61.97 131.48 62.76 131.74 63.28 132.27C63.8 132.8 64.07 133.56 64.07 134.55V135.27V135.26ZM62.02 134.05C62.01 133.62 61.9 133.3 61.7 133.08C61.5 132.86 61.18 132.75 60.76 132.75C60.36 132.75 60.04 132.85 59.78 133.06C59.52 133.27 59.38 133.59 59.35 134.05H62.02Z" fill="#52A733"></path>
    <path d="M68.8598 138.26C68.2998 138.26 67.7898 138.19 67.3298 138.06C66.8698 137.93 66.4598 137.72 66.1198 137.44C65.7798 137.16 65.5198 136.81 65.3298 136.39C65.1398 135.97 65.0498 135.47 65.0498 134.9C65.0498 134.3 65.1498 133.79 65.3498 133.35C65.5498 132.92 65.8298 132.56 66.1898 132.27C66.5398 132 66.9398 131.8 67.3898 131.68C67.8398 131.56 68.3098 131.49 68.7998 131.49C69.2398 131.49 69.6398 131.54 70.0098 131.63C70.3798 131.72 70.7298 131.85 71.0398 132V133.76H70.7498C70.6698 133.69 70.5698 133.61 70.4598 133.52C70.3498 133.43 70.2098 133.34 70.0498 133.25C69.8898 133.17 69.7198 133.1 69.5398 133.04C69.3498 132.99 69.1298 132.96 68.8898 132.96C68.3398 132.96 67.9198 133.13 67.6198 133.48C67.3298 133.83 67.1798 134.3 67.1798 134.9C67.1798 135.5 67.3298 135.99 67.6398 136.3C67.9498 136.61 68.3698 136.78 68.9298 136.78C69.1898 136.78 69.4198 136.75 69.6298 136.69C69.8398 136.63 70.0098 136.56 70.1498 136.48C70.2798 136.4 70.3898 136.32 70.4898 136.24C70.5898 136.16 70.6798 136.08 70.7698 135.99H71.0598V137.75C70.7398 137.9 70.3998 138.02 70.0398 138.11C69.6898 138.2 69.2998 138.24 68.8698 138.24" fill="#52A733"></path>
    <path d="M78.9702 134.88C78.9702 135.94 78.6602 136.77 78.0502 137.38C77.4402 137.99 76.5702 138.29 75.4602 138.29C74.3502 138.29 73.4802 137.99 72.8702 137.38C72.2502 136.77 71.9502 135.94 71.9502 134.88C71.9502 133.82 72.2602 132.98 72.8802 132.38C73.5002 131.78 74.3602 131.47 75.4702 131.47C76.5802 131.47 77.4602 131.77 78.0702 132.38C78.6802 132.99 78.9902 133.82 78.9902 134.88M76.4402 136.44C76.5702 136.28 76.6702 136.08 76.7402 135.85C76.8102 135.62 76.8402 135.3 76.8402 134.89C76.8402 134.51 76.8102 134.2 76.7402 133.94C76.6702 133.68 76.5802 133.48 76.4602 133.33C76.3402 133.17 76.1902 133.06 76.0202 133C75.8502 132.94 75.6602 132.9 75.4702 132.9C75.2802 132.9 75.1002 132.93 74.9402 132.98C74.7802 133.03 74.6402 133.14 74.5002 133.3C74.3702 133.45 74.2802 133.65 74.2002 133.91C74.1302 134.17 74.0902 134.5 74.0902 134.89C74.0902 135.24 74.1202 135.54 74.1902 135.8C74.2602 136.06 74.3502 136.27 74.4702 136.42C74.5902 136.57 74.7402 136.68 74.9102 136.75C75.0802 136.82 75.2702 136.85 75.4902 136.85C75.6802 136.85 75.8502 136.82 76.0202 136.76C76.1902 136.7 76.3302 136.59 76.4502 136.44" fill="#52A733"></path>
    <path d="M82.4995 129.19H80.4395V138.08H82.4995V129.19Z" fill="#52A733"></path>
    <path d="M88.33 137.4C88.22 137.49 88.08 137.58 87.92 137.7C87.76 137.82 87.6 137.91 87.46 137.98C87.26 138.07 87.05 138.14 86.83 138.18C86.61 138.22 86.37 138.25 86.11 138.25C85.5 138.25 84.99 138.06 84.58 137.68C84.17 137.3 83.96 136.82 83.96 136.23C83.96 135.76 84.06 135.38 84.27 135.08C84.48 134.78 84.78 134.55 85.16 134.38C85.54 134.21 86.01 134.09 86.58 134.01C87.15 133.93 87.73 133.88 88.34 133.85V133.82C88.34 133.47 88.19 133.22 87.91 133.09C87.62 132.95 87.19 132.89 86.63 132.89C86.29 132.89 85.93 132.95 85.54 133.07C85.15 133.19 84.88 133.28 84.71 133.35H84.52V131.8C84.74 131.74 85.09 131.68 85.58 131.6C86.07 131.52 86.56 131.48 87.05 131.48C88.22 131.48 89.07 131.66 89.58 132.02C90.1 132.38 90.36 132.94 90.36 133.72V138.09H88.32V137.41L88.33 137.4ZM88.33 136.41V135.08C88.05 135.1 87.75 135.13 87.43 135.17C87.11 135.21 86.86 135.26 86.69 135.31C86.48 135.37 86.33 135.47 86.22 135.59C86.11 135.71 86.06 135.87 86.06 136.08C86.06 136.21 86.07 136.32 86.09 136.41C86.11 136.49 86.17 136.57 86.26 136.65C86.35 136.73 86.45 136.78 86.57 136.82C86.69 136.86 86.88 136.87 87.14 136.87C87.35 136.87 87.55 136.83 87.77 136.74C87.98 136.66 88.17 136.55 88.33 136.41Z" fill="#52A733"></path>
    <path d="M98.96 134.79C98.96 135.8 98.68 136.62 98.12 137.26C97.56 137.9 96.87 138.22 96.03 138.22C95.67 138.22 95.36 138.18 95.09 138.11C94.82 138.04 94.56 137.92 94.32 137.78L94.23 138.1H92.25V129.21H94.31V132.36C94.63 132.11 94.95 131.9 95.28 131.75C95.61 131.6 95.99 131.52 96.42 131.52C97.23 131.52 97.85 131.81 98.29 132.4C98.73 132.99 98.95 133.79 98.95 134.82M96.84 134.83C96.84 134.26 96.74 133.82 96.55 133.51C96.36 133.2 96.01 133.05 95.51 133.05C95.32 133.05 95.12 133.08 94.91 133.14C94.7 133.2 94.51 133.28 94.32 133.39V136.61C94.47 136.66 94.61 136.7 94.74 136.72C94.87 136.74 95.03 136.75 95.22 136.75C95.76 136.75 96.17 136.59 96.44 136.27C96.71 135.95 96.84 135.47 96.84 134.83Z" fill="#52A733"></path>
    <path d="M106.769 135.26H102.059C102.089 135.76 102.279 136.15 102.639 136.41C102.989 136.68 103.509 136.81 104.199 136.81C104.629 136.81 105.049 136.73 105.459 136.58C105.869 136.42 106.189 136.26 106.429 136.08H106.659V137.73C106.189 137.92 105.759 138.05 105.339 138.14C104.929 138.22 104.469 138.27 103.969 138.27C102.679 138.27 101.699 137.98 101.009 137.4C100.319 136.82 99.9795 136 99.9795 134.93C99.9795 133.86 100.309 133.03 100.949 132.41C101.589 131.79 102.489 131.48 103.619 131.48C104.659 131.48 105.449 131.74 105.969 132.27C106.489 132.8 106.759 133.56 106.759 134.55V135.27L106.769 135.26ZM104.729 134.05C104.719 133.62 104.609 133.3 104.409 133.08C104.209 132.86 103.889 132.75 103.469 132.75C103.069 132.75 102.749 132.85 102.489 133.06C102.229 133.27 102.089 133.59 102.059 134.05H104.729Z" fill="#52A733"></path>
    <path d="M110.28 129.19H108.22V138.08H110.28V129.19Z" fill="#52A733"></path>
    <path d="M114.44 135.84H112.3V138.09H114.44V135.84Z" fill="#52A733"></path>
    <path d="M122.779 135.26H118.069C118.099 135.76 118.289 136.15 118.639 136.41C118.989 136.68 119.509 136.81 120.199 136.81C120.629 136.81 121.049 136.73 121.459 136.58C121.869 136.42 122.189 136.26 122.429 136.08H122.659V137.73C122.189 137.92 121.759 138.05 121.339 138.14C120.929 138.22 120.469 138.27 119.969 138.27C118.679 138.27 117.699 137.98 117.009 137.4C116.319 136.82 115.979 136 115.979 134.93C115.979 133.86 116.309 133.03 116.949 132.41C117.589 131.79 118.489 131.48 119.619 131.48C120.659 131.48 121.449 131.74 121.969 132.27C122.489 132.8 122.759 133.56 122.759 134.55V135.27L122.779 135.26ZM120.729 134.05C120.719 133.62 120.609 133.3 120.409 133.08C120.209 132.86 119.889 132.75 119.469 132.75C119.069 132.75 118.749 132.85 118.489 133.06C118.229 133.27 118.089 133.59 118.059 134.05H120.729Z" fill="#52A733"></path>
    <path d="M130.629 138.08H128.569V137.37C128.189 137.66 127.839 137.88 127.529 138.03C127.219 138.18 126.839 138.25 126.399 138.25C125.689 138.25 125.149 138.04 124.759 137.64C124.379 137.23 124.189 136.63 124.189 135.83V131.65H126.249V134.83C126.249 135.15 126.249 135.42 126.279 135.64C126.309 135.86 126.349 136.03 126.429 136.17C126.499 136.31 126.609 136.41 126.759 136.48C126.909 136.54 127.109 136.58 127.369 136.58C127.539 136.58 127.739 136.55 127.949 136.48C128.159 136.41 128.369 136.32 128.569 136.2V131.65H130.629V138.07V138.08Z" fill="#52A733"></path>
    <path d="M34.0703 86.8299H25.5703V73.9199H34.0703V75.4399H27.2803V78.9799H34.0703V80.4999H27.2803V85.2999H34.0703V86.8299Z" fill="#52A733"></path>
    <path d="M46.5098 81.6402C46.5098 82.5802 46.4098 83.3901 46.1998 84.0901C45.9898 84.7901 45.6598 85.3702 45.1898 85.8302C44.7398 86.2702 44.2198 86.5902 43.6298 86.7902C43.0398 86.9902 42.3398 87.0901 41.5498 87.0901C40.7598 87.0901 40.0298 86.9801 39.4298 86.7701C38.8298 86.5501 38.3198 86.2402 37.9098 85.8202C37.4398 85.3502 37.1098 84.7702 36.8998 84.1102C36.6898 83.4402 36.5898 82.6202 36.5898 81.6402V73.9202H38.2998V81.7302C38.2998 82.4302 38.3498 82.9801 38.4398 83.3801C38.5298 83.7901 38.6998 84.1502 38.9198 84.4802C39.1698 84.8602 39.5198 85.1402 39.9498 85.3302C40.3898 85.5202 40.9098 85.6102 41.5198 85.6102C42.1298 85.6102 42.6698 85.5202 43.0998 85.3302C43.5298 85.1402 43.8798 84.8602 44.1398 84.4802C44.3598 84.1502 44.5298 83.7702 44.6198 83.3502C44.7098 82.9302 44.7598 82.4001 44.7598 81.7701V73.9102H46.4698V81.6301L46.5098 81.6402Z" fill="#52A733"></path>
    <path d="M25.4004 125.54V88.4199H35.7904V91.3599H28.2904V106.98H32.8504V109.92H28.2904V122.59H35.7904V125.54H25.4004Z" fill="#2A5D98"></path>
    <path d="M46.7603 108.64V104.42C46.7603 103.79 46.5403 103.25 46.0903 102.81C45.6403 102.37 45.1003 102.15 44.4603 102.15C43.8203 102.15 43.2803 102.37 42.8303 102.81C42.3803 103.25 42.1603 103.79 42.1603 104.42V120.65C42.1603 121.28 42.3803 121.82 42.8303 122.26C43.2803 122.7 43.8203 122.92 44.4603 122.92C45.1003 122.92 45.6403 122.7 46.0903 122.26C46.5403 121.82 46.7603 121.28 46.7603 120.65V116.76H49.6603V120.65C49.6603 121.38 49.5303 122.06 49.2603 122.69C48.9903 123.32 48.6203 123.88 48.1503 124.35C47.6803 124.82 47.1303 125.2 46.5003 125.47C45.8703 125.74 45.1903 125.87 44.4703 125.87C43.7503 125.87 43.0703 125.73 42.4403 125.47C41.8103 125.2 41.2603 124.83 40.7903 124.35C40.3203 123.88 39.9503 123.32 39.6803 122.69C39.4103 122.06 39.2803 121.38 39.2803 120.65V104.42C39.2803 103.69 39.4103 103.01 39.6803 102.38C39.9503 101.75 40.3203 101.19 40.7903 100.72C41.2603 100.25 41.8103 99.8802 42.4403 99.6102C43.0703 99.3402 43.7503 99.2002 44.4703 99.2002C45.1903 99.2002 45.8703 99.3402 46.5003 99.6102C47.1303 99.8802 47.6803 100.25 48.1503 100.72C48.6203 101.19 48.9903 101.75 49.2603 102.38C49.5303 103.01 49.6603 103.69 49.6603 104.42V108.64H46.7603Z" fill="#2A5D98"></path>
    <path d="M64.2696 120.65C64.2696 121.38 64.1396 122.06 63.8696 122.69C63.5996 123.32 63.2296 123.88 62.7596 124.35C62.2896 124.82 61.7396 125.2 61.1096 125.47C60.4796 125.74 59.7997 125.87 59.0797 125.87C58.3597 125.87 57.6796 125.73 57.0496 125.47C56.4196 125.2 55.8697 124.83 55.3997 124.35C54.9297 123.88 54.5596 123.32 54.2896 122.69C54.0196 122.06 53.8896 121.38 53.8896 120.65V104.42C53.8896 103.69 54.0196 103.01 54.2896 102.38C54.5596 101.75 54.9297 101.19 55.3997 100.72C55.8697 100.25 56.4196 99.8802 57.0496 99.6102C57.6796 99.3402 58.3597 99.2002 59.0797 99.2002C59.7997 99.2002 60.4796 99.3402 61.1096 99.6102C61.7396 99.8802 62.2896 100.25 62.7596 100.72C63.2296 101.19 63.5996 101.75 63.8696 102.38C64.1396 103.01 64.2696 103.69 64.2696 104.42V120.65ZM61.3696 104.42C61.3696 103.79 61.1496 103.25 60.6996 102.81C60.2496 102.37 59.7096 102.15 59.0696 102.15C58.4296 102.15 57.8896 102.37 57.4396 102.81C56.9896 103.25 56.7696 103.79 56.7696 104.42V120.65C56.7696 121.28 56.9896 121.82 57.4396 122.26C57.8896 122.7 58.4296 122.92 59.0696 122.92C59.7096 122.92 60.2496 122.7 60.6996 122.26C61.1496 121.82 61.3696 121.28 61.3696 120.65V104.42Z" fill="#2A5D98"></path>
    <path d="M71.3902 88.4702H68.4902V125.54H71.3902V88.4702Z" fill="#2A5D98"></path>
    <path d="M83.1104 125.35C82.7604 125.51 82.4004 125.63 82.0404 125.73C81.6804 125.82 81.2704 125.87 80.8304 125.87C80.1004 125.87 79.4204 125.73 78.7904 125.47C78.1604 125.2 77.6003 124.83 77.1303 124.35C76.6603 123.87 76.2803 123.32 76.0203 122.69C75.7503 122.06 75.6204 121.38 75.6204 120.65V112.87C75.6204 112.14 75.7503 111.46 76.0203 110.83C76.2903 110.2 76.6603 109.64 77.1303 109.17C77.6003 108.7 78.1604 108.33 78.7904 108.05C79.4204 107.78 80.1004 107.65 80.8304 107.65C81.2704 107.65 81.6903 107.71 82.0903 107.81C82.4903 107.92 82.8204 108.04 83.1104 108.16V104.41C83.1104 103.78 82.8904 103.24 82.4404 102.8C81.9904 102.36 81.4503 102.14 80.8103 102.14C80.1703 102.14 79.6304 102.36 79.1804 102.8C78.7304 103.24 78.5104 103.78 78.5104 104.41V105.69H75.6104V104.41C75.6104 103.68 75.7404 103 76.0104 102.37C76.2804 101.74 76.6504 101.18 77.1204 100.71C77.5904 100.24 78.1403 99.8699 78.7703 99.5999C79.4003 99.3299 80.0804 99.1899 80.8004 99.1899C81.5204 99.1899 82.2004 99.3299 82.8304 99.5999C83.4604 99.8699 84.0104 100.24 84.4804 100.71C84.9504 101.18 85.3203 101.74 85.5903 102.37C85.8603 103 85.9903 103.68 85.9903 104.41V125.53H83.0903V125.34L83.1104 125.35ZM78.5104 120.65C78.5104 121.28 78.7304 121.82 79.1804 122.26C79.6304 122.7 80.1703 122.92 80.8103 122.92C81.4503 122.92 81.9904 122.7 82.4404 122.26C82.8904 121.82 83.1104 121.28 83.1104 120.65V112.87C83.1104 112.24 82.8904 111.7 82.4404 111.26C81.9904 110.82 81.4503 110.6 80.8103 110.6C80.1703 110.6 79.6304 110.82 79.1804 111.26C78.7304 111.7 78.5104 112.24 78.5104 112.87V120.65Z" fill="#2A5D98"></path>
    <path d="M94.1397 99.36C94.5397 99.25 94.9497 99.19 95.3997 99.19C96.1297 99.19 96.8097 99.33 97.4397 99.6C98.0697 99.87 98.6297 100.24 99.0997 100.71C99.5697 101.18 99.9397 101.74 100.21 102.37C100.48 103 100.62 103.68 100.62 104.41V120.64C100.62 121.37 100.48 122.05 100.21 122.68C99.9397 123.31 99.5697 123.87 99.0997 124.34C98.6297 124.81 98.0697 125.19 97.4397 125.46C96.8097 125.73 96.1297 125.86 95.3997 125.86C94.9597 125.86 94.5497 125.81 94.1897 125.72C93.8297 125.63 93.4697 125.5 93.1197 125.34V125.53H90.2197V88.46H93.1197V99.71C93.3997 99.58 93.7397 99.47 94.1397 99.36ZM97.0597 102.8C96.6097 102.36 96.0697 102.14 95.4297 102.14C94.7897 102.14 94.2497 102.36 93.7997 102.8C93.3497 103.24 93.1297 103.78 93.1297 104.41V120.64C93.1297 121.27 93.3497 121.81 93.7997 122.25C94.2497 122.69 94.7897 122.91 95.4297 122.91C96.0697 122.91 96.6097 122.69 97.0597 122.25C97.5097 121.81 97.7297 121.27 97.7297 120.64V104.41C97.7297 103.78 97.5097 103.24 97.0597 102.8Z" fill="#2A5D98"></path>
    <path d="M104.85 104.42C104.85 103.69 104.98 103.01 105.25 102.38C105.52 101.75 105.89 101.19 106.36 100.72C106.83 100.25 107.38 99.8802 108.01 99.6102C108.64 99.3402 109.32 99.2002 110.04 99.2002C110.76 99.2002 111.44 99.3402 112.07 99.6102C112.7 99.8802 113.25 100.25 113.72 100.72C114.19 101.19 114.56 101.75 114.83 102.38C115.1 103.01 115.23 103.69 115.23 104.42V114.48H107.73V120.65C107.73 121.28 107.95 121.82 108.4 122.26C108.85 122.7 109.39 122.92 110.03 122.92C110.67 122.92 111.21 122.7 111.66 122.26C112.11 121.82 112.33 121.28 112.33 120.65V118.7H115.23V120.65C115.23 121.38 115.1 122.06 114.83 122.69C114.56 123.32 114.19 123.88 113.72 124.35C113.25 124.82 112.7 125.2 112.07 125.47C111.44 125.74 110.76 125.87 110.04 125.87C109.32 125.87 108.64 125.73 108.01 125.47C107.38 125.2 106.83 124.83 106.36 124.35C105.89 123.88 105.52 123.32 105.25 122.69C104.98 122.06 104.85 121.38 104.85 120.65V104.42ZM107.74 111.53H112.34V104.41C112.34 103.78 112.12 103.24 111.67 102.8C111.22 102.36 110.68 102.14 110.04 102.14C109.4 102.14 108.86 102.36 108.41 102.8C107.96 103.24 107.74 103.78 107.74 104.41V111.53Z" fill="#2A5D98"></path>
    <path d="M122.37 88.4702H119.47V125.54H122.37V88.4702Z" fill="#2A5D98"></path>
    <path d="M89.0498 52.7098H95.7598L90.3398 56.6498L92.3998 50.2798L94.4798 56.6498L89.0498 52.7098Z" fill="#2A5D98"></path>
  </g>
  <defs>
    <clipPath id="clip0_435_1408">
      <rect width="149.03" height="149.03" fill="white" transform="translate(0 0.5)"></rect>
    </clipPath>
  </defs>
</svg>
