<?xml version="1.0" encoding="UTF-8" standalone="no"?>
<!-- Created with Inkscape (http://www.inkscape.org/) -->
<svg id="svg2" xmlns:rdf="http://www.w3.org/1999/02/22-rdf-syntax-ns#" xmlns="http://www.w3.org/2000/svg" xml:space="preserve" height="226.87" width="340" version="1.1" xmlns:cc="http://creativecommons.org/ns#" xmlns:dc="http://purl.org/dc/elements/1.1/"><metadata id="metadata8"><rdf:RDF><cc:Work rdf:about=""><dc:format>image/svg+xml</dc:format><dc:type rdf:resource="http://purl.org/dc/dcmitype/StillImage"/><dc:title/></cc:Work></rdf:RDF></metadata><defs id="defs6"><clipPath id="clipPath18"><path id="path20" d="m0 1751.9v-1751.9h2812.5v1751.9h-2812.5z"/></clipPath></defs><g id="g10" transform="matrix(1.25 0 0 -1.25 20 206.87)"><g id="g12" transform="scale(.085332)"><g id="g14"><g id="g16" clip-path="url(#clipPath18)"><path id="path22" d="m1557.8 1751.9c-804.96 0-1458.4-776.5-1557.8-875.93 99.422-99.43 752.84-875.97 1557.8-875.97 596.6 0 929.5 457.52 1254.7 875.97-382 462.33-658.1 875.93-1254.7 875.93" fill-rule="evenodd" fill="#fff"/><path id="path24" d="m1632.6 165.25c-398.57 0-721.66 323.09-721.66 721.64 0 398.56 323.09 721.66 721.66 721.66 398.55 0 721.65-323.1 721.65-721.66s-323.1-721.64-721.65-721.64zm-74.8 1586.6c-804.96 0-1458.4-776.5-1557.8-875.93 99.422-99.43 752.84-875.97 1557.8-875.97 596.6 0 929.5 457.52 1254.7 875.97-382 462.33-658.1 875.93-1254.7 875.93" fill-rule="evenodd" fill="#059b4e"/><path id="path26" d="m2121.1 1210-28.35 109.86h-928.53l-35.45-109.86h180.74v-545.75h173.67v545.75h637.92" fill-rule="evenodd" fill="#2a3e92"/><path id="path28" d="m1992.6 1032.8c0 18.81-15.26 34.07-34.1 34.07-18.83 0-34.1-15.26-34.1-34.07v-228.18c0-18.848 15.27-34.063 34.1-34.063 18.84 0 34.1 15.215 34.1 34.063v228.18zm-152.4-365.03c-25.79 0-46.92 21.57-46.92 47.832v402.21c0 26.31 21.13 47.83 46.92 47.83h235.64c25.79 0 46.89-21.52 46.89-47.83v-402.21c0-26.262-21.1-47.832-46.89-47.832h-235.64" fill-rule="evenodd" fill="#2a3e92"/><path id="path30" d="m1686.9 769.19c-12.64 0-22.99 10.332-22.99 22.957v248.28c0 12.61 10.35 22.96 22.99 22.96h58.53v101.83h-153.74c-25.8 0-46.92-21.53-46.92-47.86v-402.17c0-26.269 21.12-47.832 46.92-47.832h153.74v101.83h-58.53" fill-rule="evenodd" fill="#2a3e92"/><path id="path32" d="m1218.5 547.77c-1.67 2.691-3.85 5.109-6.39 7.218-2.6 2.051-5.5 3.692-8.74 4.871-3.23 1.129-6.63 1.743-10.19 1.743-6.48 0-11.98-1.274-16.5-3.774-4.52-2.527-8.22-5.898-11.01-10.058-2.83-4.239-4.86-9.032-6.16-14.418-1.29-5.411-1.9-10.981-1.9-16.75 0-5.5 0.61-10.813 1.9-16.043 1.3-5.18 3.33-9.879 6.16-14.02 2.79-4.18 6.49-7.488 11.01-10 4.52-2.527 10.02-3.75 16.5-3.75 8.82 0 15.69 2.711 20.67 8.039 4.93 5.434 7.96 12.512 9.09 21.301h27.86c-0.74-8.188-2.63-15.59-5.66-22.219-3.08-6.57-7.1-12.238-12.13-16.851-5.02-4.68-10.89-8.188-17.62-10.649-6.73-2.422-14.14-3.672-22.21-3.672-10.02 0-19.05 1.711-27.04 5.25-8.04 3.461-14.79 8.282-20.28 14.364-5.51 6.148-9.74 13.308-12.66 21.597-2.94 8.242-4.39 17.11-4.39 26.653 0 9.839 1.45 18.918 4.39 27.277 2.92 8.351 7.15 15.699 12.66 21.91 5.49 6.231 12.24 11.152 20.28 14.672 7.99 3.559 17.02 5.348 27.04 5.348 7.25 0 14.05-1.047 20.47-3.09 6.42-2.098 12.15-5.149 17.25-9.09 5.07-4.008 9.29-8.93 12.58-14.809 3.28-5.879 5.38-12.601 6.22-20.179h-27.89c-0.48 3.289-1.58 6.328-3.31 9.129" fill="#2a3e92"/><path id="path34" d="m1373 582.72v-24.25h-69.17v-28.071h63.48v-22.386h-63.48v-32.114h70.62v-24.218h-99.45v131.04h98" fill="#2a3e92"/><path id="path36" d="m1458.9 523.4c6.6 0 11.54 1.473 14.88 4.422 3.29 2.91 4.93 7.739 4.93 14.301 0 6.391-1.64 10.969-4.93 13.848-3.34 2.929-8.28 4.301-14.88 4.301h-31.57v-36.872h31.57zm10.29 59.321c5.86 0 11.15-0.981 15.84-2.879 4.71-1.91 8.75-4.5 12.14-7.82 3.37-3.258 5.93-7.122 7.67-11.45 1.8-4.351 2.68-9.039 2.68-14.05 0-7.692-1.62-14.36-4.87-19.969-3.23-5.629-8.52-9.949-15.86-12.871v-0.379c3.53-0.942 6.47-2.473 8.83-4.473 2.3-2 4.19-4.418 5.68-7.117 1.45-2.82 2.52-5.813 3.19-9.121 0.67-3.32 1.14-6.629 1.41-9.891 0.1-2.097 0.22-4.558 0.34-7.371 0.1-2.808 0.34-5.656 0.65-8.617 0.31-2.902 0.79-5.731 1.43-8.332 0.69-2.617 1.73-4.828 3.08-6.699h-28.83c-1.58 4.14-2.58 9.101-2.94 14.84-0.36 5.789-0.92 11.25-1.67 16.539-0.96 6.851-3.05 11.851-6.21 15.043-3.19 3.187-8.42 4.769-15.63 4.769h-28.79v-51.191h-28.81v131.04h70.67" fill="#2a3e92"/><path id="path38" d="m1522 558.47v24.25h107.35v-24.25h-39.28v-106.79h-28.83v106.79h-39.24" fill="#2a3e92"/><path id="path40" d="m1649 451.68h28.828v131.04h-28.828v-131.04z" fill="#2a3e92"/><path id="path42" d="m1799.8 582.72v-24.25h-63.29v-30.258h54.85v-22.422h-54.85v-54.109h-28.8v131.04h92.09" fill="#2a3e92"/><path id="path44" d="m1821.1 451.68h28.809v131.04h-28.809v-131.04z" fill="#2a3e92"/><path id="path46" d="m1977.8 582.72v-24.25h-69.16v-28.071h63.46v-22.386h-63.46v-32.114h70.6v-24.218h-99.43v131.04h97.99" fill="#2a3e92"/><path id="path48" d="m2057.8 475.9c4.14 0 8.19 0.672 12.1 1.973 3.94 1.418 7.42 3.617 10.49 6.699 3.05 3.192 5.47 7.231 7.31 12.25 1.87 4.981 2.78 11.09 2.78 18.352 0 6.598-0.67 12.547-1.95 17.848-1.27 5.371-3.39 9.878-6.34 13.699-2.93 3.801-6.81 6.691-11.63 8.722-4.85 2-10.79 3.028-17.89 3.028h-20.54v-82.571h25.67zm2.01 106.82c8.45 0 16.32-1.399 23.57-4.078 7.29-2.692 13.59-6.711 18.91-12.09 5.33-5.43 9.48-12.102 12.49-20.192 3-8.078 4.51-17.531 4.51-28.437 0-9.512-1.26-18.352-3.67-26.434-2.47-8.09-6.18-15.019-11.13-20.886-4.94-5.891-11.12-10.551-18.52-13.864-7.43-3.379-16.13-5.058-26.16-5.058h-56.51v131.04h56.51" fill="#2a3e92"/></g></g></g></g></svg>
